<?xml version="1.0" encoding="UTF-8" standalone="no"?>
<svg
   viewBox="0 0 64 64"
   version="1.1"
   id="svg334"
   sodipodi:docname="Extension.svg"
   inkscape:version="1.3.1 (91b66b0783, 2023-11-16)"
   xml:space="preserve"
   inkscape:export-filename="Extension.png"
   inkscape:export-xdpi="1500"
   inkscape:export-ydpi="1500"
   xmlns:inkscape="http://www.inkscape.org/namespaces/inkscape"
   xmlns:sodipodi="http://sodipodi.sourceforge.net/DTD/sodipodi-0.dtd"
   xmlns:xlink="http://www.w3.org/1999/xlink"
   xmlns="http://www.w3.org/2000/svg"
   xmlns:svg="http://www.w3.org/2000/svg"><defs
     id="defs338"><radialGradient
       inkscape:collect="always"
       xlink:href="#linearGradient1200-3"
       id="radialGradient1"
       cx="21.456154"
       cy="78.368561"
       fx="21.456154"
       fy="78.368561"
       r="32"
       gradientUnits="userSpaceOnUse"
       gradientTransform="matrix(0,-1.732455,1.6108918,1.1567074e-6,-94.133103,92.61029)" /><linearGradient
       inkscape:collect="always"
       id="linearGradient1200-3"><stop
         style="stop-color:#ca1428;stop-opacity:1;"
         offset="0"
         id="stop1198-5" /><stop
         style="stop-color:#9b1526;stop-opacity:1;"
         offset="1"
         id="stop1196-6" /></linearGradient></defs><sodipodi:namedview
     id="namedview336"
     pagecolor="#ffffff"
     bordercolor="#666666"
     borderopacity="1.0"
     inkscape:showpageshadow="2"
     inkscape:pageopacity="0.0"
     inkscape:pagecheckerboard="0"
     inkscape:deskcolor="#d1d1d1"
     showgrid="false"
     showguides="true"
     inkscape:zoom="2.6074563"
     inkscape:cx="8.245584"
     inkscape:cy="72.292679"
     inkscape:window-width="1440"
     inkscape:window-height="831"
     inkscape:window-x="0"
     inkscape:window-y="0"
     inkscape:window-maximized="1"
     inkscape:current-layer="svg334" /><path
     fill="#FF8700"
     d="M 0,0 H 64 V 64 H 0 Z"
     id="path330-2"
     style="fill:url(#radialGradient1);fill-opacity:1" /><path
     style="fill:none;stroke:#ffffff;stroke-width:6;stroke-linecap:round;stroke-linejoin:round;stroke-dasharray:none;stroke-opacity:1"
     d="M 13.244294,32.066525 20.0388,16.622087 27.128511,32.066525"
     id="path3"
     sodipodi:nodetypes="ccc" /><path
     style="fill:none;stroke:#ffffff;stroke-width:4;stroke-linecap:round;stroke-linejoin:round;stroke-dasharray:none;stroke-opacity:1"
     d="m 15.385964,29.795339 h 9.608051"
     id="path7" /><path
     style="fill:none;stroke:#ffffff;stroke-width:6;stroke-linecap:round;stroke-linejoin:round;stroke-dasharray:none;stroke-opacity:1"
     d="M 38.104457,31.933043 H 49.988674"
     id="path8"
     sodipodi:nodetypes="cc" /><path
     style="fill:none;stroke:#ffffff;stroke-width:6;stroke-linecap:round;stroke-linejoin:round;stroke-dasharray:none;stroke-opacity:1"
     d="M 38.104457,47.377482 H 49.988674"
     id="path9"
     sodipodi:nodetypes="cc" /><path
     style="fill:none;stroke:#ffffff;stroke-width:4;stroke-linecap:round;stroke-linejoin:round;stroke-dasharray:none;stroke-opacity:1"
     d="M 37.470318,46.563923 50.656712,32.674693"
     id="path10"
     sodipodi:nodetypes="cc" /><path
     style="color:#000000;fill:#ffffff;stroke-linecap:round;stroke-linejoin:round;-inkscape-stroke:none;paint-order:fill markers stroke"
     d="m 33.757812,15.921875 c -1.416943,-0.189195 -2.869756,-0.191664 -4.324218,0.0059 a 2,2 0 0 0 -1.712891,2.25 2,2 0 0 0 2.251953,1.712891 c 4.389052,-0.596057 8.747911,1.223685 11.410156,4.763672 a 2,2 0 0 0 2.800782,0.396484 2,2 0 0 0 0.396484,-2.798828 C 41.933401,18.732667 38.008644,16.489459 33.757812,15.921875 Z"
     id="path11" /><path
     style="color:#000000;fill:#ffffff;stroke-linecap:round;stroke-linejoin:round;-inkscape-stroke:none;paint-order:fill markers stroke"
     d="M 17.974609,36.484375 A 2,2 0 0 0 17.0625,39.162109 c 2.411648,4.901052 7.135978,8.260711 12.556641,8.933594 a 2,2 0 0 0 2.230468,-1.738281 2,2 0 0 0 -1.738281,-2.230469 c -4.088097,-0.507467 -7.640194,-3.0362 -9.458984,-6.732422 a 2,2 0 0 0 -2.677735,-0.910156 z"
     id="circle11" /></svg>
