<?xml version="1.0" encoding="UTF-8" standalone="no"?>
<svg
   viewBox="0 0 64 64"
   version="1.1"
   id="svg334"
   sodipodi:docname="Extension.svg"
   inkscape:version="1.2.2 (b0a8486541, 2022-12-01)"
   xml:space="preserve"
   inkscape:export-filename="Extension.png"
   inkscape:export-xdpi="1500"
   inkscape:export-ydpi="1500"
   xmlns:inkscape="http://www.inkscape.org/namespaces/inkscape"
   xmlns:sodipodi="http://sodipodi.sourceforge.net/DTD/sodipodi-0.dtd"
   xmlns:xlink="http://www.w3.org/1999/xlink"
   xmlns="http://www.w3.org/2000/svg"
   xmlns:svg="http://www.w3.org/2000/svg"><defs
     id="defs338"><linearGradient
       inkscape:collect="always"
       id="linearGradient1200"><stop
         style="stop-color:#9b1526;stop-opacity:1;"
         offset="0"
         id="stop1196" /><stop
         style="stop-color:#ca1428;stop-opacity:1;"
         offset="1"
         id="stop1198" /></linearGradient><linearGradient
       inkscape:collect="always"
       xlink:href="#linearGradient1200"
       id="linearGradient1202"
       x1="0"
       y1="64"
       x2="64"
       y2="0"
       gradientUnits="userSpaceOnUse" /></defs><sodipodi:namedview
     id="namedview336"
     pagecolor="#ffffff"
     bordercolor="#666666"
     borderopacity="1.0"
     inkscape:showpageshadow="2"
     inkscape:pageopacity="0.0"
     inkscape:pagecheckerboard="0"
     inkscape:deskcolor="#d1d1d1"
     showgrid="false"
     showguides="true"
     inkscape:zoom="5.2149126"
     inkscape:cx="37.488644"
     inkscape:cy="42.95374"
     inkscape:window-width="1440"
     inkscape:window-height="831"
     inkscape:window-x="0"
     inkscape:window-y="0"
     inkscape:window-maximized="1"
     inkscape:current-layer="svg334" /><path
     fill="#FF8700"
     d="M0 0h64v64H0z"
     id="path330"
     style="fill:url(#linearGradient1202);fill-opacity:1" /><path
     id="rect398"
     style="color:#000000;fill:#ffffff;stroke:none;stroke-linecap:round;stroke-linejoin:round;-inkscape-stroke:none;paint-order:fill markers stroke"
     d="m 32,10.609375 a 3,3 0 0 0 -3,3 v 18.736328 l -2.457031,-2.5 a 3,3 0 0 0 -4.242188,-0.03711 3,3 0 0 0 -0.03516,4.24414 l 7.595703,7.726563 a 3,3 0 0 0 0.166016,0.134766 3.0003,3.0003 0 0 0 0.179687,0.146484 3,3 0 0 0 0.552735,0.328125 3.0003,3.0003 0 0 0 0.148437,0.07422 3,3 0 0 0 0.785156,0.191406 3.0003,3.0003 0 0 0 0.140625,0.002 3,3 0 0 0 0.666016,-0.03711 3.0003,3.0003 0 0 0 0.216797,-0.04687 3,3 0 0 0 0.589844,-0.214844 3.0003,3.0003 0 0 0 0.175781,-0.08398 3,3 0 0 0 0.621094,-0.457032 3,3 0 0 0 0.03516,-0.03711 l 7.595703,-7.726563 a 3,3 0 0 0 -0.03516,-4.24414 3,3 0 0 0 -4.242188,0.03711 L 35,32.345703 V 13.609375 a 3,3 0 0 0 -3,-3 z m -16.353516,6.074219 a 2.0002,2.0002 0 0 0 -2,2 v 32.707031 a 2.0002,2.0002 0 0 0 2,2 h 32.707032 a 2.0002,2.0002 0 0 0 2,-2 V 18.683594 a 2.0002,2.0002 0 0 0 -2,-2 H 39 v 4 h 7.353516 V 49.390625 H 17.646484 V 20.683594 H 25 v -4 z" /></svg>
